<?xml version="1.0" encoding="utf-8"?>
<!-- Generator: Adobe Illustrator 25.2.0, SVG Export Plug-In . SVG Version: 6.00 Build 0)  -->
<svg version="1.1" id="Layer_1" xmlns="http://www.w3.org/2000/svg" xmlns:xlink="http://www.w3.org/1999/xlink" x="0px" y="0px"
	 viewBox="0 0 500 500" style="enable-background:new 0 0 500 500;" xml:space="preserve">
<style type="text/css">
	.st0{fill:#0DB9CB;}
</style>
<g>
	<g>
		<path class="st0" d="M320.95,155.89c7.09,15.58,11.03,32.67,11.03,50.59c0,0.57,0.08,1.12,0.11,1.68l58.66-52.11V93.89
			L320.95,155.89z"/>
		<path class="st0" d="M313.39,206.48c0-62.08-55.55-112.59-123.83-112.59v46.47c41.68,0,75.68,28.35,77.21,63.66l-31.57,28.05
			c8.41,14.64,13.92,30.91,15.76,48.16l28.16-25.02c20.01,37.75,62.52,63.87,111.62,63.87V272.6
			C348.1,272.6,313.39,242.94,313.39,206.48z"/>
		<path class="st0" d="M310.43,405.79v-46.47c-42.65,0-77.36-29.66-77.36-66.12c0-62.08-55.55-112.59-123.83-112.59v46.47
			c36.24,0,66.66,21.44,75.01,50.25l-75.01,66.63v62.16L193.81,331C210.93,374.54,256.74,405.79,310.43,405.79z"/>
	</g>
</g>
</svg>
